<?xml version="1.0" encoding="UTF-8"?>
<svg width="57.721mm" height="57.721mm" version="1.1" viewBox="0 0 57.721 57.721" xmlns="http://www.w3.org/2000/svg">
 <g transform="translate(-119.11 -54.685)">
  <ellipse cx="149.55" cy="82.698" rx="28.045" ry="25.363" fill-opacity="0" stroke-width=".26458"/>
  <circle cx="147.97" cy="83.546" r="28.861" fill="#e85551" stroke-width=".26458"/>
  <g transform="matrix(.95983 -.026519 .026519 .95983 -13.925 38.571)" fill="#ffd9cc">
   <g transform="translate(18.084 -31.414)" stroke-width=".11068">
    <path d="m132.56 79.054c-8e-3 -0.22294-3e-3 -0.2238 0.0584-0.0092 0.0369 0.13024 0.0561 0.252 0.0426 0.27058-0.0536 0.07364-0.0926-0.02725-0.10096-0.26139zm11.669-1.8864c0.0802-0.10111 0.11681-0.10688 0.0934-0.01471-0.0212 0.08341-0.0805 0.15827-0.13191 0.16636-0.0514 0.0081-0.0341-0.06016 0.0385-0.15165zm4.1668 2.7711c0.1443-0.19613 0.21358-0.25278 0.15395-0.1259-0.0596 0.12688-0.17769 0.28735-0.26236 0.35659-0.0847 0.06924-0.0359-0.03457 0.10841-0.2307zm-8.1031-7.1426c0.0802-0.10111 0.11682-0.10688 0.0934-0.01471-0.0212 0.08341-0.0805 0.15827-0.13192 0.16636-0.0514 0.0081-0.034-0.06016 0.0385-0.15165zm-3.2283-4.1869c0.1254-0.17224 0.19511-0.2293 0.15492-0.1268-0.0402 0.10251-0.14279 0.24343-0.22799 0.31317-0.0852 0.06974-0.0523-0.01413 0.0731-0.18637zm11.244 2.7668c0.0802-0.10111 0.11682-0.10688 0.0934-0.0147-0.0212 0.08341-0.0805 0.15827-0.13192 0.16636-0.0514 0.0081-0.0341-0.06016 0.0385-0.15165zm4.1324 2.8145c0.12539-0.17224 0.1951-0.2293 0.15491-0.1268-0.0402 0.10251-0.14278 0.24343-0.22799 0.31317-0.0852 0.06974-0.0523-0.01413 0.0731-0.18638zm-3.1096-4.3857c0.1093-0.14631 0.16544-0.18128 0.12475-0.0777-0.0407 0.10357-0.13013 0.22328-0.19874 0.26602-0.0686 0.04274-0.0353-0.04201 0.074-0.18832zm-8.1874-6.9872c0.12539-0.17224 0.1951-0.2293 0.15491-0.1268-0.0402 0.10251-0.14278 0.24343-0.22799 0.31317-0.0852 0.06974-0.0523-0.01413 0.0731-0.18637zm15.376 5.5813c0.12539-0.17224 0.19511-0.2293 0.15492-0.1268-0.0402 0.10251-0.14279 0.24343-0.22799 0.31317-0.0852 0.06974-0.0523-0.01413 0.0731-0.18638zm-8.1648-7.0392c0.0896-0.12303 0.14652-0.15858 0.12656-0.07899-0.02 0.07959-0.0932 0.18025-0.16285 0.22369-0.0696 0.04344-0.0533-0.02167 0.0363-0.1447zm-3.1681-4.2914c0.10931-0.14631 0.16545-0.18128 0.12475-0.0777-0.0407 0.10357-0.13012 0.22328-0.19873 0.26602-0.0686 0.04274-0.0353-0.04201 0.074-0.18832zm11.155 2.9184c0.1093-0.14631 0.16544-0.18128 0.12475-0.0777-0.0407 0.10357-0.13012 0.22328-0.19874 0.26602-0.0686 0.04274-0.0353-0.04201 0.074-0.18832z"/>
    <path d="m132.87 83.964c0.10931-0.14631 0.16544-0.18128 0.12475-0.0777-0.0407 0.10358-0.13012 0.22328-0.19873 0.26602-0.0686 0.04274-0.0353-0.04201 0.074-0.18832zm8.062 1.4884c0.20515-0.03889 0.39313-0.05605 0.41774-0.03813 0.0246 0.01791-0.12311 0.06439-0.32826 0.10327-0.20515 0.03889-0.39313 0.05605-0.41774 0.03813-0.0246-0.01791 0.12311-0.06439 0.32826-0.10327zm3.0724-0.83544c0.0337-0.04631 0.11901-0.07982 0.18954-0.07447 0.0735 0.0056 0.0624 0.05242-0.0261 0.1098-0.17233 0.11171-0.25711 0.09338-0.16341-0.03533zm-3.4525-4.0958c0.20515-0.03889 0.39313-0.05605 0.41774-0.03813 0.0246 0.01791-0.12311 0.06439-0.32826 0.10327-0.20515 0.03889-0.39313 0.05605-0.41774 0.03813-0.0246-0.01791 0.12311-0.06439 0.32826-0.10327zm7.4548-0.04885c0.10931-0.14631 0.16544-0.18128 0.12475-0.0777-0.0407 0.10357-0.13012 0.22328-0.19874 0.26602-0.0686 0.04274-0.0353-0.04201 0.074-0.18832zm-8.2283-6.9599c0.0802-0.10111 0.11682-0.10688 0.0934-0.0147-0.0212 0.08341-0.0805 0.15827-0.13192 0.16636-0.0514 0.0081-0.0341-0.06016 0.0385-0.15165zm-2.3881-5.355c0.0896-0.12303 0.14652-0.15858 0.12656-0.07899-0.02 0.07959-0.0932 0.18025-0.16285 0.22369-0.0696 0.04345-0.0533-0.02167 0.0363-0.1447zm14.696 6.5232c0.1093-0.14631 0.16544-0.18128 0.12474-0.0777-0.0407 0.10357-0.13012 0.22328-0.19874 0.26602-0.0686 0.04274-0.0353-0.04201 0.074-0.18832zm-10.58-12.357c0.1093-0.14631 0.16544-0.18128 0.12475-0.0777-0.0407 0.10357-0.13013 0.22328-0.19874 0.26602-0.0686 0.04274-0.0353-0.04201 0.074-0.18832zm14.72 6.461c0.0802-0.10111 0.11681-0.10688 0.0934-0.0147-0.0212 0.08341-0.0805 0.15827-0.13191 0.16636-0.0514 0.0081-0.0341-0.06016 0.0385-0.15165zm-3.5297-3.5849c0.12539-0.17224 0.1951-0.2293 0.15491-0.1268-0.0402 0.10251-0.14278 0.24343-0.22799 0.31317-0.0852 0.06974-0.0523-0.01413 0.0731-0.18638zm1.0472-1.6334c0.1093-0.14631 0.16544-0.18128 0.12475-0.0777-0.0407 0.10357-0.13013 0.22328-0.19874 0.26602-0.0686 0.04274-0.0353-0.04201 0.074-0.18832zm-8.1874-6.9872c0.12539-0.17224 0.1951-0.2293 0.15491-0.1268-0.0402 0.10251-0.14278 0.24343-0.22799 0.31317-0.0852 0.06974-0.0523-0.01413 0.0731-0.18638zm14.624 6.6078c0.10931-0.14631 0.16544-0.18128 0.12475-0.0777-0.0407 0.10357-0.13012 0.22328-0.19874 0.26602-0.0686 0.04274-0.0353-0.042 0.074-0.18831z"/>
    <path d="m135.98 88.148c0.10931-0.14631 0.16544-0.18128 0.12475-0.0777-0.0407 0.10357-0.13012 0.22328-0.19873 0.26602-0.0686 0.04274-0.0353-0.04201 0.074-0.18832zm-2.7888-4.6313c0.10931-0.14631 0.16544-0.18128 0.12475-0.0777-0.0407 0.10357-0.13012 0.22328-0.19873 0.26602-0.0686 0.04273-0.0353-0.04201 0.074-0.18832zm8.1228 1.969c0.0112-0.0154 0.23733-0.05099 0.5025-0.0791l0.48212-0.0511-0.4745 0.09948c-0.44231 0.09273-0.56045 0.09984-0.51012 0.03072zm3.219-1.2248c0.0135-0.01858 0.13528-0.03775 0.27058-0.04259 0.22294-8e-3 0.2238-0.0025 9e-3 0.05838-0.2254 0.06395-0.33338 0.05786-0.27977-0.01579zm1.3245-1.0375c0.0896-0.12303 0.14652-0.15858 0.12656-0.07899-0.02 0.07959-0.0932 0.18025-0.16285 0.22369-0.0696 0.04344-0.0533-0.02167 0.0363-0.1447zm-12.064-9.9578c0.0802-0.10111 0.11681-0.10688 0.0934-0.0147-0.0212 0.08341-0.0805 0.15827-0.13191 0.16636-0.0514 0.0081-0.0341-0.06016 0.0385-0.15165zm13.854 7.7014c0.12539-0.17224 0.1951-0.2293 0.15491-0.12679-0.0402 0.1025-0.14278 0.24343-0.22798 0.31317-0.0852 0.06974-0.0523-0.01413 0.0731-0.18638zm-1.6765-6.3542c0.1093-0.14631 0.16544-0.18128 0.12475-0.0777-0.0407 0.10357-0.13013 0.22328-0.19874 0.26602-0.0686 0.04273-0.0353-0.04201 0.074-0.18832zm-8.1289-7.0815c0.0896-0.12303 0.14651-0.15858 0.12655-0.07899-0.02 0.07959-0.0932 0.18025-0.16285 0.22369-0.0696 0.04345-0.0533-0.02167 0.0363-0.1447zm4.0209-5.6974c0.1254-0.17224 0.19511-0.2293 0.15492-0.1268-0.0402 0.10251-0.14279 0.24343-0.22799 0.31317-0.0852 0.06974-0.0523-0.01413 0.0731-0.18638zm13.943 7.5497c0.12539-0.17224 0.1951-0.2293 0.15491-0.12679-0.0402 0.1025-0.14279 0.24343-0.22799 0.31317-0.0852 0.06974-0.0523-0.01413 0.0731-0.18638zm-8.2951-6.8602c0.0896-0.12303 0.14652-0.15858 0.12656-0.07899-0.02 0.07959-0.0932 0.18025-0.16285 0.22369-0.0696 0.04345-0.0533-0.02167 0.0363-0.1447zm12.309 1.158c0.12539-0.17224 0.19511-0.2293 0.15491-0.12679-0.0402 0.1025-0.14278 0.24343-0.22798 0.31317-0.0852 0.06974-0.0523-0.01413 0.0731-0.18638z"/>
    <path d="m135.6 88.688c0.1443-0.19613 0.21357-0.25278 0.15395-0.1259-0.0596 0.12688-0.17769 0.28735-0.26236 0.35659-0.0847 0.06924-0.0359-0.03457 0.10841-0.2307zm-2.1475-5.5449c0.0802-0.10111 0.11681-0.10688 0.0934-0.0147-0.0212 0.08341-0.0805 0.15827-0.13191 0.16636-0.0514 0.0081-0.034-0.06016 0.0385-0.15165zm-0.16939-2.0627c-8e-3 -0.22754-3e-3 -0.22637 0.0746 0.01556 0.0459 0.14385 0.0919 0.28515 0.10224 0.314 0.0104 0.02885-0.0232 0.02185-0.0746-0.01556s-0.0974-0.17871-0.10224-0.31401zm5.8925 4.3567c0.0298 0.0021 0.21324-3e-3 0.40754-0.01133l0.35328-0.01515-0.31702 0.07723c-0.17436 0.04248-0.35775 0.04758-0.40754 0.01133-0.0498-0.03624-0.0661-0.06418-0.0363-0.06208zm-6.2339-5.016c-8e-3 -0.22294-3e-3 -0.2238 0.0584-0.0092 0.0369 0.13024 0.0561 0.252 0.0426 0.27058-0.0536 0.07364-0.0926-0.02725-0.10097-0.26139zm1.1587-7.5415c0.1254-0.17224 0.19511-0.2293 0.15492-0.1268-0.0402 0.10251-0.14279 0.24343-0.22799 0.31317-0.0852 0.06974-0.0523-0.01413 0.0731-0.18638zm13.191 8.5763c0.1093-0.14631 0.16544-0.18128 0.12474-0.0777-0.0407 0.10357-0.13012 0.22328-0.19873 0.26601-0.0686 0.04273-0.0353-0.04201 0.074-0.18832zm-9.1474-14.326c0.1093-0.14631 0.16544-0.18128 0.12475-0.0777-0.0407 0.10357-0.13012 0.22328-0.19874 0.26602-0.0686 0.04274-0.0353-0.04201 0.074-0.18832zm13.227 8.534c0.10931-0.14631 0.16544-0.18128 0.12475-0.0777-0.0407 0.10357-0.13012 0.22328-0.19874 0.26601-0.0686 0.04273-0.0353-0.04201 0.074-0.18832zm-8.2592-6.9026c0.0896-0.12303 0.14652-0.15858 0.12655-0.07899-0.02 0.07959-0.0932 0.18025-0.16284 0.22369-0.0696 0.04344-0.0533-0.02167 0.0363-0.1447zm-0.88823-7.4231c0.10931-0.14631 0.16544-0.18128 0.12475-0.0777-0.0407 0.10357-0.13012 0.22328-0.19873 0.26602-0.0686 0.04273-0.0353-0.04201 0.074-0.18832zm13.198 8.5812c0.12539-0.17224 0.1951-0.2293 0.15491-0.1268-0.0402 0.10251-0.14278 0.24343-0.22798 0.31317-0.0852 0.06974-0.0523-0.01413 0.0731-0.18638zm-8.2951-6.8602c0.0896-0.12303 0.14652-0.15858 0.12656-0.07899-0.02 0.07959-0.0932 0.18025-0.16285 0.22369-0.0696 0.04344-0.0533-0.02167 0.0363-0.1447zm7.4604-0.67222c0.0802-0.10111 0.11682-0.10688 0.0934-0.0147-0.0212 0.08341-0.0805 0.15827-0.13192 0.16636-0.0514 0.0081-0.0341-0.06016 0.0385-0.15165zm-8.2835-6.8404c0.1093-0.14631 0.16544-0.18128 0.12475-0.0777-0.0407 0.10357-0.13013 0.22328-0.19874 0.26602-0.0686 0.04274-0.0353-0.04201 0.074-0.18832zm13.162 8.6235c0.1093-0.14631 0.16544-0.18128 0.12475-0.0777-0.0407 0.10357-0.13013 0.22328-0.19874 0.26602-0.0686 0.04274-0.0353-0.042 0.074-0.18831zm-8.194-6.992c0.0896-0.12303 0.14651-0.15858 0.12655-0.07899-0.02 0.07959-0.0932 0.18025-0.16285 0.22369-0.0696 0.04344-0.0533-0.02167 0.0363-0.1447zm0.29061-0.84024c0.0834 0.02118 0.15827 0.08054 0.16636 0.13192 8e-3 0.05138-0.0602 0.03405-0.15165-0.0385-0.10111-0.08018-0.10688-0.11682-0.0147-0.09342z"/>
    <path d="m155.06 70.41c0.1093-0.14631 0.16544-0.18128 0.12474-0.0777-0.0407 0.10357-0.13012 0.22328-0.19873 0.26601-0.0686 0.04274-0.0353-0.042 0.074-0.18831zm-12.474-9.5606c0.12539-0.17224 0.1951-0.2293 0.15491-0.1268-0.13352 0.2105-0.34099 0.47056-0.15489 0.1268zm4.3113 2.5112c0.0802-0.10111 0.11681-0.10688 0.0934-0.0147-0.0156 0.02737-0.0623 0.0098-0.0934 0.0147zm7.9914-1.358c0.12539-0.17224 0.1951-0.2293 0.15491-0.1268-0.0402 0.10251-0.14279 0.24343-0.22799 0.31317-0.0852 0.06974-0.0523-0.01413 0.0731-0.18638zm4.3113 2.5112c0.0802-0.10111 0.11681-0.10688 0.0934-0.0147-0.0212 0.08341-0.0805 0.15827-0.13191 0.16636-0.0514 0.0081-0.0341-0.06016 0.0385-0.15165zm-12.571-9.4138c0.10931-0.14631 0.16545-0.18128 0.12475-0.0777-0.0407 0.10357-0.13012 0.22328-0.19873 0.26602-0.0686 0.04274-0.0353-0.04201 0.074-0.18832zm4.1518 2.7373c0.0802-0.10111 0.11682-0.10688 0.0934-0.0147-0.0212 0.08341-0.0805 0.15827-0.13192 0.16636-0.0514 0.0081-0.034-0.06016 0.0385-0.15165z"/>
    <path d="m130.19 87.834c0.12539-0.17224 0.1951-0.2293 0.15491-0.1268-0.0402 0.10251-0.14279 0.24343-0.22799 0.31317-0.0852 0.06974-0.0523-0.01413 0.0731-0.18638zm4.6778 1.8197c0.0802-0.10111 0.11681-0.10688 0.0934-0.0147-0.0212 0.08341-0.0805 0.15827-0.13191 0.16636-0.0514 0.0081-0.0341-0.06016 0.0385-0.15165zm-1.3106-15.876c0.0802-0.10111 0.11681-0.10688 0.0934-0.01471-0.0212 0.08341-0.0805 0.15827-0.13191 0.16636-0.0514 0.0081-0.0341-0.06016 0.0385-0.15165zm13.137 8.4689c0.0802-0.10111 0.11681-0.10688 0.0934-0.0147-0.0212 0.08341-0.0805 0.15827-0.13191 0.16636-0.0514 0.0081-0.0341-0.06016 0.0385-0.15165zm-8.3128-6.7932c0.1254-0.17224 0.19511-0.2293 0.15492-0.1268-0.0402 0.10251-0.14279 0.24343-0.22799 0.31317-0.0852 0.06974-0.0523-0.01413 0.0731-0.18638zm4.581 3.4719c0.0896-0.12303 0.14652-0.15858 0.12656-0.07899-0.02 0.07959-0.0932 0.18025-0.16285 0.22369-0.0696 0.04345-0.0533-0.02167 0.0363-0.1447zm-8.1515-7.0295c0.12539-0.17224 0.1951-0.2293 0.15491-0.1268-0.0402 0.10251-0.14278 0.24343-0.22799 0.31317-0.0852 0.06974-0.0523-0.01413 0.0731-0.18638zm4.6778 1.8197c0.0802-0.10111 0.11681-0.10688 0.0934-0.0147-0.0212 0.08341-0.0805 0.15827-0.13191 0.16636-0.0514 0.0081-0.0341-0.06016 0.0385-0.15165zm11.195 2.8911c0.12539-0.17224 0.19511-0.2293 0.15491-0.1268-0.0402 0.1025-0.14278 0.24343-0.22798 0.31317-0.0852 0.06974-0.0523-0.01413 0.0731-0.18638zm-11.794-10.502c0.12539-0.17224 0.19511-0.2293 0.15491-0.1268s-0.14278 0.24343-0.22798 0.31317c-0.0852 0.06974-0.0523-0.01413 0.0731-0.18638zm15.898 4.6487c0.0802-0.10111 0.11681-0.10688 0.0934-0.0147-0.0212 0.08341-0.0805 0.15827-0.13191 0.16636-0.0514 0.0081-0.0341-0.06016 0.0385-0.15165zm-11.818-10.44c0.1254-0.17224 0.19511-0.2293 0.15492-0.1268-0.0402 0.10251-0.14279 0.24343-0.22799 0.31317-0.0852 0.06974-0.0523-0.01413 0.0731-0.18638zm7.5782-2.1494c0.0896-0.12303 0.14652-0.15858 0.12656-0.07899-0.02 0.07959-0.0933 0.18025-0.16285 0.22369-0.0696 0.04345-0.0533-0.02167 0.0363-0.1447zm-3.5295-3.5962c0.1443-0.19613 0.21358-0.25278 0.15396-0.1259-0.0596 0.12688-0.17769 0.28735-0.26237 0.35659-0.0847 0.06924-0.0359-0.03457 0.10841-0.2307z"/>
    <path d="m132.74 97.277c0 3e-6 -1e-5 -2e-6 -1e-5 -3e-6zm-2.1596-9.98c0.1254-0.17224 0.19511-0.2293 0.15492-0.1268-0.0402 0.10251-0.14279 0.24343-0.22799 0.31317-0.0852 0.06974-0.0523-0.01413 0.0731-0.18638zm4.0021 2.7767c0.12539-0.17224 0.1951-0.2293 0.15491-0.1268-0.0402 0.10251-0.14278 0.24343-0.22799 0.31317-0.0852 0.06974-0.0523-0.01413 0.0731-0.18638zm6.4871-4.7234c0.16073-0.03358 0.31237-0.0464 0.33697-0.02848 0.0246 0.01791-0.0868 0.06004-0.24749 0.09362-0.16073 0.03358-0.31236 0.0464-0.33697 0.02848-0.0246-0.01791 0.0868-0.06004 0.24749-0.09362zm3.1336-0.9075c0.0978-0.06378 0.18402-0.07702 0.19152-0.02941 7e-3 0.0476-0.0726 0.09979-0.1779 0.11597-0.15222 0.02338-0.15502 0.0056-0.0136-0.08655zm-9.0016-13.084c0.1254-0.17224 0.19511-0.2293 0.15492-0.1268-0.0402 0.10251-0.14279 0.24343-0.22799 0.31317-0.0852 0.06974-0.0523-0.01413 0.0731-0.18638zm3.831 2.9829c0.0802-0.10111 0.11682-0.10688 0.0934-0.0147-0.0212 0.08341-0.0805 0.15827-0.13192 0.16636-0.0514 0.0081-0.0341-0.06016 0.0385-0.15165zm11.261 2.8016c0.1254-0.17224 0.19511-0.2293 0.15492-0.12679-0.0402 0.1025-0.14279 0.24343-0.22799 0.31317-0.0852 0.06974-0.0523-0.01413 0.0731-0.18638zm-10.978-11.62c0.1443-0.19613 0.21358-0.25278 0.15396-0.1259-0.0596 0.12688-0.17769 0.28735-0.26237 0.35659-0.0847 0.06924-0.0359-0.03457 0.10841-0.2307zm14.956 5.9598c0.10931-0.14631 0.16544-0.18128 0.12475-0.0777-0.0407 0.10357-0.13012 0.22328-0.19874 0.26602-0.0686 0.04273-0.0353-0.04201 0.074-0.18832zm-8.1582-7.0344c0.1093-0.14631 0.16544-0.18128 0.12474-0.0777-0.0407 0.10357-0.13012 0.22328-0.19873 0.26602-0.0686 0.04274-0.0353-0.04201 0.074-0.18832zm-2.7529-4.6737c0.12539-0.17224 0.19511-0.2293 0.15492-0.1268-0.0402 0.10251-0.14279 0.24343-0.22799 0.31317-0.0852 0.06974-0.0523-0.01413 0.0731-0.18638zm15.061 5.8306c0.1443-0.19613 0.21358-0.25278 0.15395-0.1259-0.0596 0.12688-0.17769 0.28735-0.26237 0.35659-0.0847 0.06924-0.0359-0.03457 0.10842-0.2307zm-8.3946-6.7273c0.0896-0.12303 0.14652-0.15858 0.12656-0.07899-0.02 0.07959-0.0932 0.18025-0.16285 0.22369-0.0696 0.04344-0.0533-0.02167 0.0363-0.1447zm-2.6927-4.7782c0.0802-0.10111 0.11681-0.10688 0.0934-0.0147-0.0212 0.08341-0.0805 0.15827-0.13191 0.16636-0.0514 0.0081-0.0341-0.06016 0.0385-0.15165z"/>
    <path d="m128.97 89.687 1.7485-2.529c0.96168-1.391 2.0751-2.982 2.4743-3.5357 0.70344-0.97572 0.7235-1.0193 0.6521-1.4173-0.0405-0.22584-0.12659-0.46244-0.19127-0.52578-0.0647-0.06334-0.17795-0.27766-0.25174-0.47626-0.0738-0.1986-0.18356-0.41067-0.24395-0.47127-0.0604-0.0606-0.15234-0.36096-0.20434-0.66748s-0.13602-0.58751-0.18672-0.62442c-0.23813-0.17336-0.28125-2.8829-0.0509-3.1993 0.0445-0.06118 0.0716-0.21536 0.06-0.34261-0.0677-0.74751 1.2111-2.8448 4.6004-7.5451 0.85448-1.185 1.9753-2.7716 2.4907-3.5258 0.51539-0.75422 2.4276-3.4721 4.2493-6.0397 1.8217-2.5676 3.3691-4.7677 3.4387-4.8892 0.14254-0.24888-0.0876-0.37432 2.2954 1.2512 1.5728 1.0728 1.8773 1.3461 1.7242 1.5475-0.1002 0.13176-1.3801 1.9483-7.0222 9.9668-1.0335 1.4688-2.9114 4.1263-4.1731 5.9056-2.4838 3.5028-2.7293 3.9006-2.8797 4.6663-0.1005 0.51168-0.0143 1.3956 0.14766 1.5135 0.0483 0.03516 0.11438 0.19107 0.14684 0.34647 0.0454 0.21753 0.23888 0.42037 0.84067 0.88156 0.4892 0.37491 0.80669 0.5646 0.8486 0.50703 0.0368-0.05059 0.0905-0.03437 0.11929 0.03604 0.0288 0.07042 0.18169 0.11423 0.33982 0.09735 0.15812-0.01687 0.26598-0.0011 0.23967 0.03502-0.0842 0.11568 1.1123-0.12573 1.3879-0.28003 0.75777-0.42426 0.86349-0.55142 3.1195-3.7523 5.0621-7.1821 6.0213-8.5406 8.8583-12.546l2.959-4.1775 0.26127 0.1703c0.14369 0.09367 0.93149 0.64841 1.7507 1.2328s1.552 1.0672 1.6286 1.073c0.0766 0.0058 0.16757 0.10622 0.2022 0.22314 0.0548 0.18484-0.23656 0.63772-2.2322 3.4701-1.2623 1.7916-3.2108 4.5622-4.3299 6.157-6.322 9.0087-7.3121 10.369-8.1398 11.187-0.47834 0.47231-0.87987 0.78933-1.0023 0.79133-0.11232 0.0018-0.23943 0.05172-0.28248 0.11086-0.16388 0.2251-1.2204 0.72296-1.661 0.78267-0.25304 0.03429-0.49344 0.1082-0.53424 0.16423-0.0934 0.12828-0.76993 0.21912-0.78778 0.10577-7e-3 -0.04623-0.29714-0.01295-0.64415 0.07395s-0.64675 0.11928-0.66609 0.07195c-0.0193-0.04733-0.2421-0.08473-0.49502-0.08313s-0.50934-0.0331-0.56982-0.07713c-0.0605-0.04403-0.31582-0.06557-0.56742-0.04788l-0.45746 0.03218-2.4815 3.5157c-1.3648 1.9336-2.4989 3.6852-2.4989 3.6852z"/>
   </g>
   <circle transform="rotate(34.991)" cx="156.33" cy="-32.11" r="5.1094"/>
  </g>
  <path d="m122.14 70.638a28.861 28.861 0 0 0-2.498 7.2797c0.81576 0.95676 2.1526 2.4878 2.5125 2.8722 0.26218 0.27995 0.8367 0.8782 1.2764 1.3296 0.5087 0.52225 1.0283 1.129 1.4283 1.6686 1.3381 1.8053 2.5137 3.0679 4.5341 4.8674 1.3367 1.1906 2.2112 1.9015 4.1863 3.405 1.8104 1.3781 3.2043 2.397 3.9352 2.8763 2.1838 1.4322 3.1445 2.1059 3.5476 2.4872 0.36472 0.34498 0.32399 0.45024-0.89245 2.3151-0.8391 1.2866-0.85813 1.3272-0.77153 1.6567 0.11398 0.43372 0.29545 0.50134 1.4619 0.54364 0.91379 0.0331 1.7144-0.0385 2.3234-0.20722 0.70629-0.19573 1.8046-0.81453 2.6221-1.4774l0.35243-0.28526 0.22221 0.08527c0.1223 0.0471 0.63803 0.26075 1.1462 0.47491 3.3262 1.4019 7.5698 2.462 10.95 2.7347 1.2299 0.0992 5.4103 0.25464 9.4118 0.34984 0.33105 8e-3 0.61378 0.0198 0.62838 0.0259 4e-3 2e-3 0.11728-0.0401 0.19586-0.0682a28.861 28.861 0 0 0 2.064-2.3947c-0.0277-0.21297-0.0815-0.5009-0.17725-1.0025l-0.22944-1.2015-0.51315-0.99736c-0.90044-1.7504-1.4472-2.5512-3.6985-5.4152-1.7209-2.1892-1.9367-2.3983-4.3098-4.1703-1.7651-1.318-3.0363-2.0941-5.2048-3.1791-1.6294-0.81522-2.4844-1.203-2.759-1.2506l-0.21446-0.03721-0.33847-1.0113c-1.762-5.26-3.4075-8.8117-4.702-10.149-0.35201-0.36355-0.69799-0.57568-0.93897-0.57568-0.1826 0-0.48536 0.22432-0.59893 0.4439-0.0468 0.09057-0.2198 0.68625-0.38447 1.324-0.9484 3.6729-2.1936 6.1758-3.6737 7.3846-0.20407 0.16666-0.49051 0.36074-0.63665 0.4315l-0.26561 0.12868-1.1023-0.37569c-6.6264-2.2586-12.41-4.5565-14.831-5.8932-1.6525-0.91239-2.3787-1.5044-3.174-2.5683 0 0-0.49088-0.51759-0.709-1.5245-0.08-0.34642-0.13509-0.64212-0.1757-0.90072z" fill="#2a324b" stroke-width=".26458"/>
 </g>
</svg>
